<svg xmlns="http://www.w3.org/2000/svg" width="12.931" height="12.268" viewBox="0 0 12.931 12.268">
  <g id="_1" data-name="1" transform="translate(0 0)">
    <path id="Path_34" data-name="Path 34" d="M141.9,53.316h-2.8a4.576,4.576,0,0,0-1.6.288l-2.183.811a.485.485,0,1,0,.338.909l2.182-.811a3.615,3.615,0,0,1,1.264-.226h2.8a.459.459,0,1,1,0,.919.485.485,0,1,0,0,.97h.661a.459.459,0,0,1,0,.919.485.485,0,1,0,0,.97h.661a.46.46,0,1,1,0,.919.485.485,0,1,0,0,.97h.661a.46.46,0,0,1,0,.919h-4.58a.485.485,0,0,0-.425.719,3.24,3.24,0,0,1,.3.948,2.574,2.574,0,0,1-.4,1.9.4.4,0,0,1-.722-.226,3.494,3.494,0,0,0-2.22-3.492.485.485,0,1,0-.379.893,2.563,2.563,0,0,1,1.311,1.134,3,3,0,0,1,.318,1.455,1.368,1.368,0,0,0,2.5.781,3.657,3.657,0,0,0,.436-3.143h3.87a1.43,1.43,0,0,0,.633-2.711,1.431,1.431,0,0,0-.661-1.889,1.431,1.431,0,0,0-.661-1.889,1.43,1.43,0,0,0-1.294-2.037Z" transform="translate(-132.386 -53.316)" fill="#aaa9a9"/>
    <path id="Path_35" data-name="Path 35" d="M57.392,174.86H54.615a.485.485,0,0,0-.485.485v6.649a.485.485,0,0,0,.485.485h2.777a.485.485,0,0,0,.485-.485v-6.649A.485.485,0,0,0,57.392,174.86Zm-2.291.97h1.806v5.679H55.1Z" transform="translate(-54.13 -174.142)" fill="#aaa9a9"/>
  </g>
</svg>
