<svg xmlns="http://www.w3.org/2000/svg" width="30" height="30" viewBox="0 0 30 30">
  <g id="Group_432" data-name="Group 432" transform="translate(-4462 -404)">
    <path id="_5365678_fb_facebook_facebook_logo_icon" data-name="5365678_fb_facebook_facebook logo_icon" d="M26.335,0A3.667,3.667,0,0,1,30,3.665V26.335A3.667,3.667,0,0,1,26.335,30H20.1V18.7H24l.742-4.841H20.1V10.714A2.421,2.421,0,0,1,22.826,8.1h2.112V3.977a25.757,25.757,0,0,0-3.749-.327c-3.825,0-6.326,2.318-6.326,6.516v3.69H10.61V18.7h4.252V30H3.665A3.667,3.667,0,0,1,0,26.335V3.665A3.667,3.667,0,0,1,3.665,0H26.335Z" transform="translate(4462 404)" fill="#1777f2" fill-rule="evenodd"/>
  </g>
</svg>
