<svg id="_x37__stroke" xmlns="http://www.w3.org/2000/svg" xmlns:xlink="http://www.w3.org/1999/xlink" width="30" height="30" viewBox="0 0 30 30">
  <defs>
    <radialGradient id="radial-gradient" cx="0.149" cy="1.003" r="1.278" gradientUnits="objectBoundingBox">
      <stop offset="0" stop-color="#ffb140"/>
      <stop offset="0.256" stop-color="#ff5445"/>
      <stop offset="0.599" stop-color="#fc2b82"/>
      <stop offset="1" stop-color="#8e40b7"/>
    </radialGradient>
  </defs>
  <g id="Instagram_1_">
    <rect id="Rectangle_187" data-name="Rectangle 187" width="30" height="30" fill="none"/>
    <path id="Instagram" d="M24.807,6.993a1.8,1.8,0,1,1-1.8-1.8A1.8,1.8,0,0,1,24.807,6.993ZM15,20a5,5,0,1,1,5-5A5,5,0,0,1,15,20ZM15,7.3A7.7,7.7,0,1,0,22.7,15,7.7,7.7,0,0,0,15,7.3ZM15,2.7c4.005,0,4.48.015,6.061.087a8.3,8.3,0,0,1,2.785.517,4.648,4.648,0,0,1,1.725,1.122,4.644,4.644,0,0,1,1.122,1.725,8.3,8.3,0,0,1,.517,2.785C27.282,10.521,27.3,11,27.3,15s-.015,4.48-.087,6.061a8.3,8.3,0,0,1-.517,2.785,4.969,4.969,0,0,1-2.847,2.847,8.3,8.3,0,0,1-2.785.517c-1.582.072-2.056.087-6.061.087s-4.48-.015-6.061-.087a8.3,8.3,0,0,1-2.785-.517,4.648,4.648,0,0,1-1.725-1.122,4.647,4.647,0,0,1-1.122-1.725,8.3,8.3,0,0,1-.517-2.785C2.718,19.48,2.7,19.005,2.7,15s.015-4.48.087-6.061a8.3,8.3,0,0,1,.517-2.785A4.648,4.648,0,0,1,4.429,4.429,4.644,4.644,0,0,1,6.153,3.307,8.3,8.3,0,0,1,8.939,2.79C10.52,2.718,10.995,2.7,15,2.7ZM15,0c-4.074,0-4.585.017-6.184.09a11.01,11.01,0,0,0-3.641.7,7.35,7.35,0,0,0-2.657,1.73A7.35,7.35,0,0,0,.787,5.175a11.011,11.011,0,0,0-.7,3.641C.017,10.415,0,10.926,0,15s.017,4.585.09,6.184a11.011,11.011,0,0,0,.7,3.641,7.35,7.35,0,0,0,1.73,2.657,7.353,7.353,0,0,0,2.657,1.73,11.011,11.011,0,0,0,3.641.7c1.6.073,2.111.09,6.184.09s4.585-.017,6.184-.09a11.011,11.011,0,0,0,3.641-.7,7.67,7.67,0,0,0,4.387-4.387,11.011,11.011,0,0,0,.7-3.641c.073-1.6.09-2.111.09-6.184s-.017-4.585-.09-6.184a11.011,11.011,0,0,0-.7-3.641,7.353,7.353,0,0,0-1.73-2.657A7.353,7.353,0,0,0,24.825.787a11.011,11.011,0,0,0-3.641-.7C19.585.017,19.074,0,15,0Z" fill-rule="evenodd" fill="url(#radial-gradient)"/>
  </g>
</svg>
