<svg xmlns="http://www.w3.org/2000/svg" width="13.601" height="10.559" viewBox="0 0 13.601 10.559">
  <path id="_8665659_reply_all_icon" data-name="8665659_reply_all_icon" d="M3.222,36.6l4.156,3.568a.567.567,0,0,0,.937-.429V37.75c2.562.3,3.568,1.388,2.659,4.3a.42.42,0,0,0,.663.44A4.827,4.827,0,0,0,13.6,38.846c0-3.1-2.24-4.09-5.289-4.333V32.577a.567.567,0,0,0-.937-.429l-4.156,3.59A.565.565,0,0,0,3.222,36.6ZM.2,36.6l4.156,3.568a.567.567,0,0,0,.937-.429v-.374l-3.723-3.2L5.294,32.95v-.373a.567.567,0,0,0-.937-.429L.2,35.716A.59.59,0,0,0,.2,36.6Z" transform="translate(-0.004 -32.01)" fill="#909090"/>
</svg>
