<svg id="_5296516_tweet_twitter_twitter_logo_icon" data-name="5296516_tweet_twitter_twitter logo_icon" xmlns="http://www.w3.org/2000/svg" width="30" height="30" viewBox="0 0 30 30">
  <path id="Dark_Blue" d="M26.25,30H3.75A3.751,3.751,0,0,1,0,26.25V3.75A3.751,3.751,0,0,1,3.75,0h22.5A3.751,3.751,0,0,1,30,3.75v22.5A3.751,3.751,0,0,1,26.25,30Z" fill="#1da1f2"/>
  <path id="Logo__x2014__FIXED" d="M102.015,141.192a10.872,10.872,0,0,0,10.943-10.943c0-.165,0-.33-.008-.495a7.835,7.835,0,0,0,1.92-1.995,7.8,7.8,0,0,1-2.213.607,3.869,3.869,0,0,0,1.7-2.13,7.65,7.65,0,0,1-2.445.93,3.847,3.847,0,0,0-6.652,2.632,4.251,4.251,0,0,0,.1.878,10.921,10.921,0,0,1-7.927-4.02,3.861,3.861,0,0,0,1.192,5.138,3.89,3.89,0,0,1-1.74-.48v.053a3.854,3.854,0,0,0,3.083,3.773,3.868,3.868,0,0,1-1.733.067,3.846,3.846,0,0,0,3.593,2.67,7.714,7.714,0,0,1-4.778,1.65,7.4,7.4,0,0,1-.915-.052,10.94,10.94,0,0,0,5.887,1.717" transform="translate(-90.495 -118.572)" fill="#fff"/>
</svg>
