<svg xmlns="http://www.w3.org/2000/svg" width="31.99" height="24" viewBox="0 0 31.99 24">
  <g id="_317714_video_youtube_icon" data-name="317714_video_youtube_icon" transform="translate(0 -4)">
    <path id="Path_30" data-name="Path 30" d="M31.67,9.179A7.692,7.692,0,0,0,30.4,5.79a4.413,4.413,0,0,0-3.2-1.443C22.717,4,16,4,16,4h-.015S9.272,4,4.8,4.347A4.415,4.415,0,0,0,1.591,5.79,7.705,7.705,0,0,0,.32,9.179,54.968,54.968,0,0,0,0,14.7v2.588a54.948,54.948,0,0,0,.32,5.523A7.676,7.676,0,0,0,1.591,26.2a5.231,5.231,0,0,0,3.527,1.459c2.559.262,10.877.343,10.877.343s6.722-.012,11.2-.355A4.432,4.432,0,0,0,30.4,26.2a7.69,7.69,0,0,0,1.271-3.386,54.974,54.974,0,0,0,.32-5.523V14.7A54.974,54.974,0,0,0,31.67,9.179Z" fill="#e02f2f"/>
    <path id="Path_31" data-name="Path 31" d="M12,10V22l10-6Z" fill="#fff"/>
  </g>
</svg>
